<?xml version="1.0" encoding="UTF-8" standalone="no"?>
<!-- Created with Inkscape (http://www.inkscape.org/) -->

<svg
     xmlns:dc="http://purl.org/dc/elements/1.1/"
     xmlns:cc="http://creativecommons.org/ns#"
     xmlns:rdf="http://www.w3.org/1999/02/22-rdf-syntax-ns#"
     xmlns:svg="http://www.w3.org/2000/svg"
     xmlns="http://www.w3.org/2000/svg"
     xmlns:sodipodi="http://sodipodi.sourceforge.net/DTD/sodipodi-0.dtd"
     xmlns:inkscape="http://www.inkscape.org/namespaces/inkscape"
     id="svg3390"
     version="1.1"
     inkscape:version="0.91 r13725"
     width="1"
     height="1"
     viewBox="0 0 1 1"
     sodipodi:docname="mask3.svg">
    <metadata
         id="metadata3396">
        <rdf:RDF>
            <cc:Work
                 rdf:about="">
                <dc:format>image/svg+xml</dc:format>
                <dc:type
                     rdf:resource="http://purl.org/dc/dcmitype/StillImage" />
                <dc:title></dc:title>
            </cc:Work>
        </rdf:RDF>
    </metadata>
    <defs
         id="defs3394" />
    <sodipodi:namedview
         pagecolor="#ffffff"
         bordercolor="#666666"
         borderopacity="1"
         objecttolerance="10"
         gridtolerance="10"
         guidetolerance="10"
         inkscape:pageopacity="0"
         inkscape:pageshadow="2"
         inkscape:window-width="1562"
         inkscape:window-height="895"
         id="namedview3392"
         showgrid="false"
         inkscape:zoom="256"
         inkscape:cx="1.2599229"
         inkscape:cy="0.10807624"
         inkscape:window-x="0"
         inkscape:window-y="0"
         inkscape:window-maximized="0"
         inkscape:current-layer="svg3390" />
    <path
         style="fill:#000000"
         d="m 0.755,0.03285875 c 0.0215304,0.0017504 0.0664741,0.0093746 0.0813994,0.01380858 0.039254,0.01166147 0.0673549,0.0271037 0.0894695,0.049166 0.0169375,0.01689745 0.023662,0.02801125 0.0292314,0.04831174 0.004758,0.0173419 0.003872,0.0433573 -0.002384,0.0700216 -0.0167287,0.0713049 -0.0151912,0.10268585 0.008882,0.18128313 0.0106139,0.0346539 0.0147862,0.0542296 0.0160668,0.0753835 0.001823,0.0301064 -0.00564,0.0615246 -0.0234289,0.0986403 l -0.008934,0.0186403 8.8841e-4,0.0163597 c 0.001479,0.0272301 -0.00396,0.0524817 -0.0171656,0.079693 -0.0100793,0.02077 -0.0102932,0.0227264 -0.004008,0.0366667 0.008022,0.0177929 0.0210211,0.0579982 0.0248722,0.0769285 0.005714,0.0280852 0.003891,0.0499177 -0.006389,0.076515 -0.0187591,0.0485383 -0.0583915,0.085598 -0.10634824,0.099445 -0.0105723,0.003053 -0.0170127,0.003738 -0.0346525,0.003687 -0.0346929,-9.997e-5 -0.0619239,-0.007435 -0.0933699,-0.0251514 L 0.6925,0.94288825 0.66833333,0.94305321 c -0.0132917,9.073e-5 -0.0294167,-3.8206e-4 -0.0358333,-0.001051 -0.0111451,-0.001161 -0.012891,-8.1646e-4 -0.0390544,0.007713 -0.0463987,0.0151257 -0.0766907,0.0205659 -0.12677888,0.0227686 -0.012375,5.4421e-4 -0.03975,0.002171 -0.0608333,0.003615 C 0.32978565,0.98130603 0.29639412,0.97680769 0.255,0.9557788 l -0.0125,-0.00635 -0.0266667,-1.5261e-4 c -0.0236342,-1.3527e-4 -0.0277367,-5.8283e-4 -0.0360764,-0.003936 -0.015196,-0.006109 -0.02957,-0.016391 -0.0456207,-0.0326318 -0.008267,-0.008365 -0.0192792,-0.018771 -0.0244722,-0.0231252 C 0.08860317,0.87192409 0.0683437,0.83820291 0.05776063,0.80319179 0.04106047,0.74794396 0.0383814,0.71191797 0.04750917,0.66533852 c 0.0031538,-0.0160938 0.0039262,-0.0241699 0.0032205,-0.0336719 -5.1058e-4,-0.006875 -0.0011373,-0.02 -0.0013927,-0.0291667 -3.5726e-4,-0.012823 -0.0029997,-0.0287742 -0.01145793,-0.0691667 -0.01476533,-0.0705119 -0.0167968,-0.0851948 -0.01579572,-0.11416667 6.489e-4,-0.0187793 0.0016293,-0.0259356 0.0050233,-0.0366667 0.0023194,-0.007333 0.0046813,-0.0193333 0.0052487,-0.0266667 0.0021524,-0.0278163 0.0099963,-0.0501802 0.02855595,-0.0814162 L 0.07344288,0.25332642 0.0715426,0.23124656 c -0.0032449,-0.0377031 8.2343e-4,-0.0604597 0.01448783,-0.0810398 0.003417,-0.005146 0.01502294,-0.0181817 0.02579087,-0.0289673 0.0162337,-0.0162602 0.0216651,-0.0206005 0.0317951,-0.02540785 0.0212846,-0.0101008 0.0386565,-0.01127849 0.0637456,-0.0043215 l 0.0113716,0.0031532 0.0143832,-0.0066237 c 0.0466974,-0.02150482 0.08375,-0.03536433 0.10899696,-0.04077027 0.0190801,-0.0040855 0.0513448,-0.0040976 0.0678863,-2.566e-5 0.0158782,0.0039087 0.0428854,0.01682871 0.0563756,0.02696951 l 0.0104272,0.0078383 0.0125,-0.0018592 c 0.017709,-0.0026339 0.0493789,-0.0023035 0.0665703,6.9442e-4 0.008054,0.0014045 0.0188395,0.0021675 0.0239683,0.0016956 0.005129,-4.719e-4 0.0198252,-0.0017197 0.0326585,-0.0027729 l 0.0233333,-0.0019148 0.01,-0.0098987 C 0.67346212,0.04064702 0.70922198,0.02913706 0.755,0.03285871 Z"
         id="path3546"
         inkscape:connector-curvature="0" />
</svg>
